<?xml version="1.0" encoding="UTF-8"?>
<svg width="20px" height="20px" viewBox="0 0 20 20" version="1.1" xmlns="http://www.w3.org/2000/svg" xmlns:xlink="http://www.w3.org/1999/xlink">
    <!-- Generator: sketchtool 52.4 (67378) - http://www.bohemiancoding.com/sketch -->
    <title>A1C1E62B-3416-4E62-A2C2-5CB7A22C8225</title>
    <desc>Created with sketchtool.</desc>
    <defs>
        <path d="M15.2313688,11.4873143 L15.2311124,11.4870579 C13.7175934,11.4870579 12.5126857,10.2821502 12.5126857,8.79478468 L12.5126857,4.71842669 C12.5126857,3.20490763 13.7177216,2 15.2311124,2 L19.2815733,2 C20.7950924,2 22,3.20503583 22,4.71842669 L22,8.76888758 C22,10.2824066 20.7950924,11.4873143 19.3077268,11.4873143 L15.2313688,11.4873143 Z M8.76888758,12.5129421 L8.76863117,12.5126857 C10.2821502,12.5126857 11.4870579,13.7177216 11.4870579,15.2311124 L11.4870579,19.2815733 C11.4870579,20.7950924 10.2821502,22 8.79478468,22 L4.71842669,22 C3.20490763,22 2,20.7950924 2,19.3077268 L2,15.2313688 C2,13.7178498 3.20503583,12.5129421 4.71842669,12.5129421 L8.76888758,12.5129421 Z M21.9997436,17.2562147 C21.9997436,19.8764375 19.8763862,21.9997436 17.2562147,21.9997436 C14.6360431,21.9997436 12.5126857,19.8763862 12.5126857,17.2562147 C12.5126857,14.6360431 14.6360431,12.5126857 17.2562147,12.5126857 C19.8763862,12.5126857 21.9997436,14.6360431 21.9997436,17.2562147 Z M8.76888758,2.00025641 L8.76863117,2 C10.2821502,2 11.4870579,3.20503583 11.4870579,4.71842669 L11.4870579,8.76888758 C11.4870579,10.2824066 10.2821502,11.4873143 8.79478468,11.4873143 L4.71842669,11.4873143 C3.20490763,11.4873143 2,10.2824066 2,8.79504109 L2,4.71868309 C2,3.20516404 3.20503583,2.00025641 4.71842669,2.00025641 L8.76888758,2.00025641 Z" id="path-1"></path>
    </defs>
    <g id="Admin" stroke="none" stroke-width="1" fill="none" fill-rule="evenodd">
        <g id="Admin---Validation-1" transform="translate(-18.000000, -278.000000)">
            <g id="Elements/-Side-Navbar" transform="translate(0.000000, 64.000000)">
                <g id="customers-copy" transform="translate(0.000000, 192.000000)">
                    <g id="icon" transform="translate(16.000000, 20.000000)">
                        <mask id="mask-2" fill="white">
                            <use xlink:href="#path-1"></use>
                        </mask>
                        <use id="Combined-Shape" fill="#000000" xlink:href="#path-1"></use>
                        <g id="↳🎨-Color" mask="url(#mask-2)" fill="#FFFFFF">
                            <rect id="colors-/-white" x="0" y="0" width="24" height="24"></rect>
                        </g>
                    </g>
                </g>
            </g>
        </g>
    </g>
</svg>