<?xml version="1.0" encoding="UTF-8"?>
<svg width="20px" height="15px" viewBox="0 0 20 15" version="1.1" xmlns="http://www.w3.org/2000/svg" xmlns:xlink="http://www.w3.org/1999/xlink">
    <!-- Generator: sketchtool 52.3 (67297) - http://www.bohemiancoding.com/sketch -->
    <title>6EAE0B04-5DB6-46DC-8091-CC25ACCF1CB9</title>
    <desc>Created with sketchtool.</desc>
    <g id="Admin" stroke="none" stroke-width="1" fill="none" fill-rule="evenodd">
        <g id="Admin---Users" transform="translate(-18.000000, -345.000000)" fill="#FFFFFF">
            <g id="Elements/-Side-Navbar" transform="translate(0.000000, 64.000000)">
                <g id="pricing" transform="translate(0.000000, 256.000000)">
                    <g id="Menu-icons" transform="translate(16.000000, 20.000000)">
                        <g id="icons_client" transform="translate(2.000000, 5.000000)">
                            <path d="M18.3703917,9.80386957 C17.0227396,8.9563913 16.1964787,8.43413043 15.6751743,8.13013043 C16.5014352,7.12978261 17.0228265,5.6733913 17.0228265,4.23926087 C17.0228265,1.78252174 15.457783,0.000130434783 13.2839135,0.000130434783 C11.1100439,0.000130434783 9.54500043,1.78256522 9.54500043,4.23926087 C9.54500043,5.63021739 10.0451743,7.06534783 10.8272613,8.06578261 C10.2616961,8.36978261 9.37091348,8.89204348 7.95791348,9.80491304 C7.04504391,10.4137826 6.52278304,11.4353478 6.52278304,12.5655652 L6.52278304,13.4130435 C6.52278304,14.021913 7.00087,14.522087 7.60973957,14.522087 L18.8053917,14.522087 C19.3921743,14.522087 19.8923483,14.021913 19.8923483,13.4130435 L19.8923483,12.5655652 C19.8490396,11.4344565 19.2843265,10.3907826 18.3706091,9.80404348 L18.3703917,9.80386957 Z M18.587783,13.2821304 L7.74039174,13.2821304 L7.74039174,12.5645652 C7.74039174,11.869087 8.08856565,11.216913 8.60995696,10.8475217 C9.97969609,9.97795652 11.6534352,8.9776087 12.0016961,8.84769565 C12.2190874,8.80438696 12.4143917,8.63030435 12.479783,8.41291304 C12.54517,8.17343478 12.4577048,7.91273913 12.2623917,7.73865217 C11.3928265,7.04317391 10.8060439,5.60804348 10.8060439,4.23821739 C10.8060439,2.45578261 11.8063917,1.26017391 13.28387,1.26017391 C14.7623048,1.26017391 15.7616961,2.45582609 15.7616961,4.23821739 C15.7616961,5.65126087 15.1316091,7.10756522 14.2620439,7.78191304 C14.0667309,7.93391739 13.9792613,8.1733913 14.0225657,8.412 C14.0658743,8.6293913 14.239957,8.80347826 14.4352613,8.89008696 C14.7180439,9.02086087 16.3051743,9.97704348 17.673957,10.8686957 C18.2174352,11.238087 18.5656091,11.8902609 18.5656091,12.5857391 L18.5664591,13.2820652 L18.587783,13.2821304 Z" id="Fill-1"></path>
                            <path d="M5.74060913,7.73865217 C4.87104391,7.04317391 4.2842613,5.60804348 4.2842613,4.23821739 C4.2842613,2.45578261 5.28460913,1.26017391 6.76208739,1.26017391 C7.58834826,1.26017391 8.26173957,1.62956522 8.69652217,2.26052174 C8.84852652,1.82573913 9.04469609,1.41304348 9.28330478,1.02156522 C8.63113087,0.369391304 7.76156565,0 6.76113087,0 C4.58721783,0 3.02221783,1.78243478 3.02221783,4.23913043 C3.02221783,5.63008696 3.52239174,7.06521739 4.3044787,8.06565217 C3.73891348,8.36965217 2.84813087,8.89191304 1.43513087,9.80478261 C0.52226087,10.4136522 0,11.4352174 0,12.5654348 L0,13.412913 C0,14.0217826 0.478086957,14.5219565 1.08695696,14.5219565 L5.63000043,14.5219565 C5.45591783,14.1958696 5.34721783,13.8043913 5.34721783,13.412913 L5.34721783,13.2609087 L1.21852217,13.2609087 L1.21852217,12.5433435 C1.21852217,11.8478652 1.56669609,11.1956913 2.08808739,10.8263 C3.45782652,9.95673478 5.13156565,8.95638696 5.47982652,8.82647391 C5.69721783,8.78316522 5.89252217,8.60908261 5.95791348,8.3916913 C6.02330043,8.17345217 5.93583522,7.91275652 5.74052217,7.73866957 L5.74060913,7.73865217 Z" id="Fill-2"></path>
                        </g>
                    </g>
                </g>
            </g>
        </g>
    </g>
</svg>