<?xml version="1.0" encoding="UTF-8"?>
<svg width="20px" height="20px" viewBox="0 0 20 20" version="1.1" xmlns="http://www.w3.org/2000/svg" xmlns:xlink="http://www.w3.org/1999/xlink">
    <!-- Generator: sketchtool 52.2 (67145) - http://www.bohemiancoding.com/sketch -->
    <title>2D93D91F-93C5-4B07-9660-A48BFC413CC7</title>
    <desc>Created with sketchtool.</desc>
    <g id="Users" stroke="none" stroke-width="1" fill="none" fill-rule="evenodd">
        <g id="Uploads---Files-upload-1" transform="translate(-1043.000000, -545.000000)" fill="#2AAB00">
            <g id="Group-2" transform="translate(231.000000, 434.000000)">
                <g id="Item" transform="translate(0.000000, 97.000000)">
                    <path d="M822,14 C816.485333,14 812,18.4853333 812,24 C812,29.5146667 816.485333,34 822,34 C827.514667,34 832,29.5146667 832,24 C832,18.4853333 827.514667,14 822,14 Z M826.272129,20.0035929 C826.102446,20.0233218 825.947325,20.1063471 825.840198,20.2337733 L820.376129,26.4417837 L817.153762,23.3508258 C817.033784,23.2193002 816.863249,23.1412076 816.681574,23.1354605 C816.499895,23.1288842 816.323358,23.1954699 816.193941,23.3179529 C816.065393,23.4412587 815.995121,23.6097714 816.000264,23.7840376 C816.005406,23.9583081 816.085105,24.1227214 816.221363,24.2386324 L819.950953,27.8161299 C820.081215,27.9402564 820.259456,28.0068421 820.44372,27.9994429 C820.627115,27.9920438 820.798514,27.9114849 820.917641,27.7766701 L826.841109,21.0425571 C827.01679,20.8460915 827.050211,20.5666026 826.924237,20.3380637 C826.799118,20.108725 826.540308,19.9763576 826.272063,20.0035045 L826.272129,20.0035929 Z" id="Fill-1"></path>
                </g>
            </g>
        </g>
    </g>
</svg>