<?xml version="1.0" encoding="UTF-8"?>
<svg width="32px" height="44px" viewBox="0 0 32 44" version="1.1" xmlns="http://www.w3.org/2000/svg" xmlns:xlink="http://www.w3.org/1999/xlink">
    <!-- Generator: sketchtool 52.6 (67491) - http://www.bohemiancoding.com/sketch -->
    <title>AD78171B-EFC9-4C6E-93C5-103864FE04E9</title>
    <desc>Created with sketchtool.</desc>
    <defs>
        <path d="M24,8.00000009 L24,2 L16,10.0000001 L24,18.0000002 L24,12.0000001 C30.62,12.0000001 36,17.3800002 36,24.0000003 C36,26.0200004 35.5,27.9400004 34.6,29.6000004 L37.52,32.5200005 C39.08,30.0600004 40,27.1400004 40,24.0000003 C40,15.1600002 32.84,8.00000009 24,8.00000009 Z M24,35.9999999 C17.38,35.9999999 12,30.6199998 12,23.9999997 C12,21.9799996 12.5,20.0599996 13.4,18.3999996 L10.48,15.4799995 C8.92,17.9399996 8,20.8599996 8,23.9999997 C8,32.8399998 15.16,39.9999999 24,39.9999999 L24,46 L32,37.9999999 L24,29.9999998 L24,35.9999999 Z" id="path-1"></path>
    </defs>
    <g id="Admin" stroke="none" stroke-width="1" fill="none" fill-rule="evenodd">
        <g id="Admin---Generate---Processing" transform="translate(-701.000000, -432.000000)">
            <g id="question" transform="translate(510.000000, 282.000000)">
                <g id="Components-/-Tables-/-Rate-/-Row" transform="translate(13.000000, 62.000000)">
                    <g id="Icons-/-Notification-/-sync" transform="translate(170.000000, 86.000000)">
                        <mask id="mask-2" fill="white">
                            <use xlink:href="#path-1"></use>
                        </mask>
                        <use id="Icon" fill="#000000" fill-rule="nonzero" xlink:href="#path-1"></use>
                        <g id="↳🎨-Color" mask="url(#mask-2)" fill="#1D3C60">
                            <rect id="Colors-/-toolbar_bg" x="0" y="0" width="48" height="48"></rect>
                        </g>
                    </g>
                </g>
            </g>
        </g>
    </g>
</svg>