<?xml version="1.0"?>
<svg xmlns="http://www.w3.org/2000/svg" viewBox="0 0 24 24" width="96px" height="96px">
    <path style="line-height:normal;text-indent:0;text-align:start;text-decoration-line:none;text-decoration-style:solid;text-decoration-color:#000;text-transform:none;block-progression:tb;isolation:auto;mix-blend-mode:normal" d="M 5.75 3 A 1.0001 1.0001 0 0 0 4.8867188 3.4960938 L 3.1367188 6.4960938 A 1.0001 1.0001 0 0 0 3 7 L 3 19 C 3 20.093063 3.9069372 21 5 21 L 19 21 C 20.093063 21 21 20.093063 21 19 L 21 7 A 1.0001 1.0001 0 0 0 20.863281 6.4960938 L 19.113281 3.4960938 A 1.0001 1.0001 0 0 0 18.25 3 L 5.75 3 z M 6.3242188 5 L 17.675781 5 L 18.841797 7 L 5.1582031 7 L 6.3242188 5 z M 9 9 L 15 9 L 15 11 L 9 11 L 9 9 z" font-weight="400" font-family="sans-serif" white-space="normal" overflow="visible"/>
</svg>
