<?xml version="1.0" encoding="UTF-8"?>
<svg width="17px" height="20px" viewBox="0 0 17 20" version="1.1" xmlns="http://www.w3.org/2000/svg" xmlns:xlink="http://www.w3.org/1999/xlink">
    <!-- Generator: sketchtool 52.2 (67145) - http://www.bohemiancoding.com/sketch -->
    <title>C8DD9C5F-EAD9-4E82-A3DE-39343CCDF5EF</title>
    <desc>Created with sketchtool.</desc>
    <g id="Users" stroke="none" stroke-width="1" fill="none" fill-rule="evenodd">
        <g id="Uploads---Files-upload-1" transform="translate(-20.000000, -342.000000)" fill="#FFFFFF" fill-rule="nonzero">
            <g id="Elements/-Side-Navbar" transform="translate(0.000000, 64.000000)">
                <g id="pricing" transform="translate(0.000000, 256.000000)">
                    <g id="Menu-icons" transform="translate(16.000000, 20.000000)">
                        <g id="np_receipt_455358_FFFFFF" transform="translate(4.000000, 2.000000)">
                            <path d="M11.7646444,5.09302222 C12.3242022,5.09302222 12.7643733,5.53321778 12.7643733,6.09275111 C12.7643733,6.63893778 12.3241778,7.09248 11.7646444,7.09248 L4.32424444,7.0934348 C3.76468667,7.0934348 3.32451556,6.63986813 3.32451556,6.09370591 C3.32451556,5.53414813 3.76471111,5.09397702 4.32424444,5.09397702 L11.7646444,5.09302222 Z" id="Shape"></path>
                            <path d="M12.7644222,13.9196667 C12.7644222,14.4658533 12.3242267,14.9193956 11.7646933,14.9193956 L4.32429333,14.9203504 C3.76473556,14.9203504 3.32456444,14.4667837 3.32456444,13.9206215 C3.32456444,13.3744348 3.76476,12.9208926 4.32429333,12.9208926 L11.7646933,12.9208926 C12.3242511,12.9199375 12.7644222,13.3735059 12.7644222,13.9196681 L12.7644222,13.9196667 Z" id="Shape"></path>
                            <path d="M11.7646444,9.00022222 C12.3242022,9.00022222 12.7643733,9.45378889 12.7643733,9.99995111 C12.7643733,10.5595089 12.3241778,10.99968 11.7646444,10.99968 L4.32424444,10.99968 C3.76468667,10.99968 3.32451556,10.5594844 3.32451556,9.99995111 C3.32451556,9.45376444 3.76471111,9.00022222 4.32424444,9.00022222 L11.7646444,9.00022222 Z" id="Shape"></path>
                            <path d="M10.2311403,17.8663199 C10.6556292,17.4175422 11.2372069,17.1753422 11.8066513,17.1753422 C12.3760957,17.1753422 12.9585623,17.41752 13.3821623,17.8663199 L13.5036912,17.9878466 L13.5036912,17.9999995 C13.6130667,18.1215284 13.77018,18.1814239 13.9403133,18.1814239 L14.2311133,18.1085084 C14.4012511,18.0112862 14.5219133,17.8177084 14.5340689,17.587664 L14.5340689,2.41233181 C14.521916,2.19444961 14.4003889,1.98784296 14.2311133,1.90364296 L13.9403133,1.81857408 C13.7701756,1.81857408 13.6130467,1.89148963 13.5036912,2.01214962 L13.3821623,2.13367628 C12.9576734,2.59460958 12.3760957,2.824654 11.8066513,2.824654 C11.2372069,2.824654 10.6547403,2.59460958 10.2311403,2.13367628 L10.2189874,2.13367628 C10.158223,2.07291184 10.1096119,2.0486074 9.98894298,2.03645406 L9.74587634,2.13367628 L9.73372345,2.14582917 C9.32139015,2.59460691 8.73979019,2.83680689 8.17034579,2.82465134 C7.58874584,2.82465134 7.01843477,2.58247358 6.5948348,2.14582917 L6.58268214,2.13367628 C6.5219177,2.07291184 6.47330659,2.0486074 6.35263771,2.03645406 L6.10957106,2.13367628 L6.0974184,2.14582917 C5.6850851,2.59460691 5.10348514,2.83680689 4.53404074,2.82465134 C3.95244079,2.82465134 3.39428527,2.58247358 2.97066309,2.15798472 L2.82482976,2.0121514 C2.70330311,1.87847141 2.55834089,1.81857586 2.40034091,1.81857586 L2.12169648,1.89149141 L2.1095436,1.90364407 C1.93940583,1.98871296 1.81874362,2.19444405 1.80658806,2.41233292 L1.80658806,17.5876651 C1.81874095,17.8177095 1.94026805,18.0121539 2.1095436,18.1085095 L2.12169648,18.1085095 L2.40034091,18.181425 C2.55832756,18.181425 2.70329644,18.1206606 2.82482976,18.0000006 L2.84913643,17.9635428 L2.97066309,17.8420139 C3.39515194,17.4175251 3.95244079,17.1753473 4.53404074,17.1753473 C5.09132959,17.1753473 5.67379621,17.4053918 6.08526284,17.8663251 L6.09741551,17.8541722 L6.35174882,17.9635477 C6.4732777,17.9635477 6.52188659,17.939241 6.58179325,17.8784788 L6.59394614,17.8541722 C7.01843499,17.41755 7.58787939,17.17535 8.16945713,17.17535 C8.72674597,17.17535 9.30921259,17.4053944 9.72067923,17.8663277 L9.73283211,17.8541748 L9.98716543,17.9635504 C10.1086943,17.9635504 10.1573032,17.9392437 10.2172099,17.8784815 L10.2311403,17.8663199 Z M11.552318,19.1032976 C11.1278291,19.5763865 10.5340958,19.7942753 9.98894032,19.7821198 C9.43165147,19.7942727 8.84918485,19.5642376 8.41342933,19.1154532 L8.40127644,19.1033005 L8.17036535,18.993925 L7.92818759,19.1033005 L7.91603492,19.1154532 C7.49154607,19.5763865 6.89781278,19.7942753 6.35265727,19.7821198 C5.79536842,19.7942727 5.2129018,19.5642376 4.77714628,19.1154532 L4.76499339,19.1033005 L4.53494896,18.993925 L4.28061565,19.1154538 L4.26846276,19.1276067 L4.17037166,19.2239601 C4.15821877,19.2361129 4.15821877,19.2361129 4.14606499,19.2482667 C3.6851317,19.7456667 3.04277619,20 2.40039846,20 C2.01237627,20 1.63650963,19.9027778 1.27279855,19.7213556 C1.27279855,19.7092027 1.26064566,19.7092027 1.26064566,19.7092027 C0.472445724,19.2847138 -0.0119320162,18.4730917 0.000223538375,17.5876695 L0.000223538375,2.41233737 C-0.0119291273,1.52778188 0.47331239,0.715293055 1.26064566,0.2908042 L1.27279855,0.2908042 C1.6373763,0.0972286591 2.01237627,4.22222189e-06 2.40039846,4.22222189e-06 C3.04275397,4.22222189e-06 3.68510947,0.26649309 4.14606499,0.763893052 L4.17037166,0.788199716 L4.26759387,0.873268599 L4.27974676,0.897573041 L4.53408007,1.00694859 L4.7641245,0.909726374 L4.77627717,0.897573486 C5.21289936,0.436640188 5.79449931,0.218751316 6.35178816,0.218751316 C6.89692145,0.218751316 7.49154362,0.436633522 7.91516581,0.897573486 L7.9273187,0.909726374 L8.17038535,1.0060797 L8.40042977,0.908857485 L8.41258266,0.896704597 C8.84920485,0.435771299 9.4308048,0.217882427 9.98809365,0.217882427 C10.5332269,0.217882427 11.1278491,0.435764633 11.5514713,0.896704597 L11.563624,0.908857485 L11.8058017,1.0060797 L12.0479795,0.908857485 L12.0601322,0.896704597 L12.1573544,0.78732905 L12.1582224,0.776044384 C12.6313112,0.278644423 13.2736667,0 13.9403333,0 C14.3283555,0 14.7163777,0.109375547 15.0679333,0.290799977 C15.8682887,0.703133279 16.3526443,1.52691099 16.3405109,2.41233315 L16.3405109,17.5876653 L16.3405109,17.6241231 C16.3405109,18.496523 15.8552665,19.2968563 15.0679333,19.7213451 C14.7155111,19.9027696 14.3283555,19.9999896 13.9403333,19.9999896 C13.2736667,19.9999896 12.6313112,19.7335007 12.1582224,19.2239452 L12.1582224,19.2117925 L12.0610002,19.102417 L12.0488475,19.0902641 L11.8066697,18.9930419 L11.564492,19.1024174 L11.552318,19.1032976 Z" id="Shape"></path>
                        </g>
                    </g>
                </g>
            </g>
        </g>
    </g>
</svg>