<?xml version="1.0" encoding="UTF-8"?>
<svg width="20px" height="20px" viewBox="0 0 20 20" version="1.1" xmlns="http://www.w3.org/2000/svg" xmlns:xlink="http://www.w3.org/1999/xlink">
    <!-- Generator: sketchtool 52.2 (67145) - http://www.bohemiancoding.com/sketch -->
    <title>77F15F10-28E2-451C-9EE4-69185E073A0E</title>
    <desc>Created with sketchtool.</desc>
    <defs>
        <path d="M15.6857801,9.33205489 L13.4319103,7.07119983 L13.4319103,16.2183917 C13.4319103,17.0047438 12.7967757,17.6418536 12.0124271,17.6418536 C11.2280784,17.6418536 10.5921639,17.0039594 10.5921639,16.2183917 L10.5921639,7.04525691 L8.31265505,9.33205489 C7.75797723,9.88823891 6.8587932,9.88902323 6.30413539,9.33205489 C5.75025754,8.77659486 5.74947757,7.87474657 6.30413539,7.31856255 L11.3289344,2.27839626 C11.6992196,1.90759351 12.2991956,1.90680919 12.6695008,2.27839626 L17.6942998,7.31856255 C18.2489576,7.87480691 18.2489576,8.77587087 17.6942998,9.33205489 C17.139622,9.88823891 16.2412179,9.88902323 15.6857801,9.33205489 Z M3.33354666,19.3180251 L20.6664533,19.3180251 C21.4031439,19.3180251 22,20.0588259 22,20.6590124 C22,21.3998134 21.4031439,22 20.6664533,22 L3.33354666,22 C2.59685613,22 2,21.259199 2,20.6590124 C2,19.9182115 2.59685613,19.3180251 3.33354666,19.3180251 Z" id="path-1"></path>
    </defs>
    <g id="Users" stroke="none" stroke-width="1" fill="none" fill-rule="evenodd">
        <g id="Reports" transform="translate(-18.000000, -86.000000)">
            <g id="Elements/-Side-Navbar" transform="translate(0.000000, 64.000000)">
                <g id="Group">
                    <g id="Quote">
                        <g id="Menu-icons" transform="translate(16.000000, 20.000000)">
                            <mask id="mask-2" fill="white">
                                <use xlink:href="#path-1"></use>
                            </mask>
                            <use id="Fill-1" fill="#000000" xlink:href="#path-1"></use>
                            <g id="↳🎨-Color" mask="url(#mask-2)" fill="#111111">
                                <rect id="colors-/-black" x="0" y="0" width="24" height="24"></rect>
                            </g>
                        </g>
                    </g>
                </g>
            </g>
        </g>
    </g>
</svg>