<?xml version="1.0" encoding="UTF-8"?>
<svg width="42px" height="30px" viewBox="0 0 42 30" version="1.1" xmlns="http://www.w3.org/2000/svg" xmlns:xlink="http://www.w3.org/1999/xlink">
    <!-- Generator: sketchtool 52.2 (67145) - http://www.bohemiancoding.com/sketch -->
    <title>4E9C3A4C-4729-4D22-A465-164EC358B1B6</title>
    <desc>Created with sketchtool.</desc>
    <defs>
        <path d="M11.0213141,36.0698068 L11.0071032,36.069853 C7.77957824,36.0554201 4.79449928,34.3550135 3.13929014,31.5848561 C1.48227965,28.8148375 1.39734722,25.3796998 2.91160553,22.5300223 C4.42567695,19.6803911 7.32253906,17.83182 10.5444204,17.654734 C11.2129626,14.6929235 12.8791371,12.05109 15.2642767,10.171798 C17.6494162,8.29250593 20.60933,7.28961856 23.6451094,7.33479558 C26.8273001,7.32577498 29.9082287,8.44974195 32.3386563,10.5025071 C34.7690839,12.5573539 36.3899704,15.4086967 36.9121938,18.5474961 C39.4544306,19.7562567 41.3030063,22.0601646 41.933662,24.8050181 C42.5625136,27.5477436 41.9029457,30.4282762 40.1429107,32.6237981 C38.3831995,34.8211242 35.7158307,36.0914331 32.9005241,36.0751729 L27.5589402,36.0751729 L27.5589402,32.3744132 L32.9111638,32.3744132 C35.6253472,32.3836651 37.9401353,30.4139357 38.3683965,27.7341231 C38.7966669,25.0525064 37.2083008,22.4594303 34.6260958,21.6227811 C33.9068994,21.3860713 33.4045491,20.7337198 33.3593721,19.9765907 C33.1822907,17.5300184 32.0780303,15.2423013 30.2729848,13.5816779 C28.4679393,11.9210545 26.0970477,11.0103022 23.6449243,11.0356015 C18.6720286,11.0356015 14.4202907,14.8464588 13.9757647,19.6620724 C13.887224,20.6161745 13.0848993,21.3462048 12.1253849,21.3407832 L12.1271936,21.3407832 L11.0213141,21.3407832 C7.97461753,21.3407832 5.50625713,23.8092362 5.50625713,26.8558403 C5.50625713,29.9006866 7.97471005,32.3690471 11.0213141,32.3690471 L16.362898,32.3690471 L16.362898,36.0698068 L11.0213141,36.0698068 Z M23.9545772,36.1333041 L20.2521986,36.1333041 L20.2521986,27.8065948 L17.3248515,30.5821646 L14.7859917,27.8951355 L20.8376587,22.1779244 C21.5496386,21.5057277 22.6627345,21.5057277 23.3765185,22.1779244 L29.4207841,27.8951355 L26.8819242,30.5821646 L23.9545772,27.8065948 L23.9545772,36.1333041 Z" id="path-1"></path>
    </defs>
    <g id="Users" stroke="none" stroke-width="1" fill="none" fill-rule="evenodd">
        <g id="Uploads---Files-upload-1" transform="translate(-597.000000, -335.000000)">
            <g id="uploads" transform="translate(215.000000, 254.000000)">
                <g id="Components-/-Uploads-/-Item---Active" transform="translate(0.000000, 36.000000)">
                    <g id="Group" transform="translate(381.000000, 23.333333)">
                        <g id="icon" transform="translate(0.000000, 14.666667)">
                            <mask id="mask-2" fill="white">
                                <use xlink:href="#path-1"></use>
                            </mask>
                            <use id="Combined-Shape" fill="#000000" xlink:href="#path-1"></use>
                            <g id="↳🎨-Color" mask="url(#mask-2)" fill="#1D3C60">
                                <rect id="colors-/-primary" x="0" y="0" width="44" height="44"></rect>
                            </g>
                        </g>
                    </g>
                </g>
            </g>
        </g>
    </g>
</svg>