<?xml version="1.0" encoding="UTF-8"?>
<svg width="20px" height="20px" viewBox="0 0 20 20" version="1.1" xmlns="http://www.w3.org/2000/svg" xmlns:xlink="http://www.w3.org/1999/xlink">
    <!-- Generator: sketchtool 52.2 (67145) - http://www.bohemiancoding.com/sketch -->
    <title>1C0B6934-20CE-4A8F-AD5A-71E596DF2533</title>
    <desc>Created with sketchtool.</desc>
    <g id="Users" stroke="none" stroke-width="1" fill="none" fill-rule="evenodd">
        <g id="Uploads---Files-upload-1" transform="translate(-1043.000000, -497.000000)" fill="#D8D8D8">
            <g id="Group-2" transform="translate(231.000000, 434.000000)">
                <g id="Item" transform="translate(0.000000, 49.000000)">
                    <path d="M822,14 C827.515579,14 832,18.4844211 832,24 C832,29.5155789 827.515579,34 822,34 C816.484421,34 812,29.5155789 812,24 C812,18.4844211 816.484421,14 822,14 Z M826.315789,19.6842105 C826.105263,19.4736842 825.747537,19.4736842 825.515621,19.6842105 L822.000042,23.1997895 L818.484463,19.6842105 C818.273937,19.4736842 817.916211,19.4736842 817.684295,19.6842105 C817.473768,19.8947368 817.473768,20.2524632 817.684295,20.4843789 L821.199874,23.9999579 L817.684295,27.5155368 C817.473768,27.7260632 817.473768,28.0837895 817.684295,28.3157053 C817.789558,28.4209684 817.936758,28.4842905 818.083958,28.4842905 C818.231162,28.4842905 818.378358,28.4209684 818.483621,28.3157053 L822.000042,24.8001263 L825.515621,28.3157053 C825.620884,28.4209684 825.768084,28.4842905 825.915284,28.4842905 C826.062488,28.4842905 826.209684,28.4209684 826.314947,28.3157053 C826.525474,28.1051789 826.525474,27.7474526 826.314947,27.5155368 L822.800211,23.9999579 L826.315789,20.4843789 C826.526316,20.2738526 826.526316,19.9161263 826.315789,19.6842105 Z" id="Fill-2-Copy"></path>
                </g>
            </g>
        </g>
    </g>
</svg>