<?xml version="1.0" encoding="UTF-8"?>
<svg width="20px" height="20px" viewBox="0 0 20 20" version="1.1" xmlns="http://www.w3.org/2000/svg" xmlns:xlink="http://www.w3.org/1999/xlink">
    <!-- Generator: sketchtool 52.2 (67145) - http://www.bohemiancoding.com/sketch -->
    <title>06AA0962-3A67-4B68-82C7-1C0A9FE896BB</title>
    <desc>Created with sketchtool.</desc>
    <defs>
        <path d="M8.31294748,10.3097987 L10.5668173,12.5706538 L10.5668173,3.42346186 C10.5668173,2.63710984 11.2019519,2 11.9863005,2 C12.7706492,2 13.4065637,2.63789416 13.4065637,3.42346186 L13.4065637,12.5965967 L15.6860726,10.3097987 C16.2407504,9.75361469 17.1399344,9.75283036 17.6945922,10.3097987 C18.2484701,10.8652587 18.24925,11.767107 17.6945922,12.323291 L12.6697932,17.3634573 C12.299508,17.7342601 11.699532,17.7350444 11.3292268,17.3634573 L6.30442782,12.323291 C5.74977001,11.7670467 5.74977001,10.8659827 6.30442782,10.3097987 C6.85910564,9.75361469 7.7575097,9.75283036 8.31294748,10.3097987 Z M3.33354666,19.3180251 L20.6664533,19.3180251 C21.4031439,19.3180251 22,20.0588259 22,20.6590124 C22,21.3998134 21.4031439,22 20.6664533,22 L3.33354666,22 C2.59685613,22 2,21.259199 2,20.6590124 C2,19.9182115 2.59685613,19.3180251 3.33354666,19.3180251 Z" id="path-1"></path>
    </defs>
    <g id="Users" stroke="none" stroke-width="1" fill="none" fill-rule="evenodd">
        <g id="Reports" transform="translate(-1364.000000, -458.000000)">
            <g id="Group-4" transform="translate(247.000000, 252.000000)">
                <g id="Components-/-Reports-/-Item-Copy-3" transform="translate(0.000000, 192.000000)">
                    <g id="Icons-/-download" transform="translate(1115.000000, 12.000000)">
                        <mask id="mask-2" fill="white">
                            <use xlink:href="#path-1"></use>
                        </mask>
                        <use id="Fill-1" fill="#000000" xlink:href="#path-1"></use>
                        <g id="↳🎨-Color" mask="url(#mask-2)" fill="#1D3C60">
                            <rect id="colors-/-toolbar_bg" x="0" y="0" width="24" height="24"></rect>
                        </g>
                    </g>
                </g>
            </g>
        </g>
    </g>
</svg>