<?xml version="1.0" encoding="UTF-8"?>
<svg width="16px" height="16px" viewBox="0 0 16 16" version="1.1" xmlns="http://www.w3.org/2000/svg" xmlns:xlink="http://www.w3.org/1999/xlink">
    <!-- Generator: sketchtool 52.6 (67491) - http://www.bohemiancoding.com/sketch -->
    <title>FCFA80A0-B1A9-45AC-B3FE-471D8D8612CB</title>
    <desc>Created with sketchtool.</desc>
    <defs>
        <path d="M14.6335351,8.97396257 L14.6335678,8.97403487 C14.7263899,9.06689113 14.8176578,9.15820028 14.9127926,9.24641323 C14.8509165,9.30599575 14.7890403,9.36789992 14.7287105,9.42825698 C14.3443061,9.81283542 13.9591294,10.1981864 13.574725,10.5827648 C13.0665682,11.0911516 12.5560948,11.6018561 12.0471658,12.1110154 C11.4841025,12.6743335 10.9241282,13.2345613 10.3610452,13.7978992 C9.81576267,14.3434285 9.27202462,14.8874126 8.72905878,15.4306242 C8.27503622,15.8848523 7.82103345,16.3390605 7.36623868,16.7940611 C7.07232193,17.0881109 6.77996942,17.3805957 6.48605268,17.6746455 C6.4218559,17.7388713 6.35765913,17.8030971 6.29423656,17.8665484 C6.22693905,17.9323214 6.14727423,17.9802972 6.05059296,17.9942255 C5.99258381,18.0019637 5.93689526,18.000416 5.8765655,18.000416 C5.21679726,18.000416 4.55936546,17.9988684 3.90038923,17.9988684 C3.39997439,17.9973207 2.89953975,17.9973207 2.3983527,17.9973207 C2.18797769,17.9973207 2.01163161,17.8193537 2.01163161,17.6104246 L2.01163161,17.4928067 C2.01163161,16.8350773 2.01008461,16.1788931 2.01008461,15.5211638 C2.0085378,15.0182047 1.98920135,14.5113631 2.0085378,14.0083843 C2.0139631,13.8350427 2.10677537,13.7499239 2.21351127,13.6431397 L2.49194412,13.3645809 C2.82993649,13.0264355 3.16794867,12.6882704 3.50671326,12.3493524 L4.95307113,10.9023399 C5.50762019,10.3475399 6.06218905,9.79272003 6.61753012,9.2371276 C7.17209898,8.68230775 7.72744006,8.12671532 8.28432556,7.56957777 C8.77159295,7.08208984 9.25888014,6.5945821 9.74614753,6.10709418 L10.7578278,5.09495601 L11.0300829,5.36733436 C11.1213429,5.46018072 11.2141571,5.55303698 11.3069714,5.64589323 C11.5792265,5.92058929 11.8545705,6.19374021 12.1268256,6.46611857 C12.8716167,7.21124671 13.6164473,7.95641447 14.3605058,8.70080966 C14.3991779,8.73949928 14.4401726,8.78051252 14.4803911,8.82074925 C14.5314384,8.87182167 14.58326,8.92366468 14.6335351,8.97396257 Z M17.6701204,4.90393657 L17.6702009,4.90399837 C18.0971425,5.33423732 18.1126066,6.01052803 17.6988184,6.45005755 C17.6926308,6.45624797 17.689537,6.45934338 17.6833494,6.46553379 L17.6694273,6.47946213 C17.5742885,6.57464401 17.4822485,6.66672572 17.3871136,6.76190363 L15.7265157,8.42325315 L15.4542606,8.15087479 C15.3637669,8.06034018 15.2732733,7.96980558 15.1820054,7.87849643 L11.5737834,4.26864128 C11.8800556,3.96375581 12.1871197,3.6596627 12.4926395,3.35400466 L13.2413312,2.60497408 C13.389834,2.4579492 13.5337055,2.29544728 13.7054124,2.1755077 C14.0201987,1.95652144 14.4440455,1.95265268 14.7843743,2.10741311 C14.9119877,2.16622504 15.0225946,2.25521254 15.1208223,2.35348467 C15.2847892,2.51984346 15.4518608,2.68467298 15.6158316,2.84871805 L17.6701204,4.90393657 Z" id="path-1"></path>
    </defs>
    <g id="Users" stroke="none" stroke-width="1" fill="none" fill-rule="evenodd">
        <g id="Inputs---Arrival" transform="translate(-1374.000000, -505.000000)">
            <g id="content" transform="translate(231.000000, 211.000000)">
                <g id="tables" transform="translate(15.000000, 86.000000)">
                    <g id="Components-/-Products-/-Item-Copy-4" transform="translate(0.000000, 192.000000)">
                        <g id="Icons-/-Navigation-/-more_vert" transform="translate(1126.000000, 14.000000)">
                            <mask id="mask-2" fill="white">
                                <use xlink:href="#path-1"></use>
                            </mask>
                            <use id="Combined-Shape" fill="#000000" xlink:href="#path-1"></use>
                            <g id="colors-/-black" mask="url(#mask-2)" fill="#757575">
                                <rect id="Colors-/-gray" x="0" y="0" width="20" height="20"></rect>
                            </g>
                        </g>
                    </g>
                </g>
            </g>
        </g>
    </g>
</svg>